<svg aria-hidden="true" style="position: absolute; width: 0; height: 0; overflow: hidden;" version="1.1" xmlns="http://www.w3.org/2000/svg" xmlns:xlink="http://www.w3.org/1999/xlink">
<defs>
<symbol id="icon-gmail" viewBox="0 0 36 32">
<path fill="#999" style="fill: var(--color1, #999)" d="M26.667 7.104h1.771v1.771c0 0.469 0.192 0.917 0.512 1.259 0.341 0.341 0.789 0.533 1.259 0.533s0.917-0.192 1.259-0.533c0.341-0.341 0.533-0.789 0.533-1.259v-1.771h1.771c0.469 0 0.917-0.192 1.259-0.533 0.32-0.32 0.512-0.768 0.512-1.237 0-0.491-0.192-0.939-0.512-1.259-0.341-0.341-0.789-0.533-1.259-0.533h-1.771v-1.771c0-0.469-0.192-0.917-0.533-1.259s-0.789-0.512-1.259-0.512c-0.469 0-0.917 0.171-1.259 0.512-0.32 0.341-0.512 0.789-0.512 1.259v1.771h-1.771c-0.491 0-0.939 0.192-1.259 0.533-0.341 0.32-0.533 0.768-0.533 1.259 0 0.469 0.192 0.917 0.533 1.237 0.32 0.341 0.768 0.533 1.259 0.533zM33.771 14.208c-0.469 0-0.917 0.192-1.259 0.533-0.341 0.32-0.512 0.768-0.512 1.259v10.667c0 0.469-0.192 0.917-0.533 1.237-0.341 0.341-0.789 0.533-1.259 0.533h-24.875c-0.491 0-0.939-0.192-1.259-0.533-0.341-0.32-0.533-0.768-0.533-1.237v-17.067l10.453 10.475c1.003 1.003 2.368 1.557 3.776 1.557s2.773-0.555 3.755-1.557l4.395-4.395c0.341-0.32 0.533-0.789 0.533-1.259s-0.192-0.917-0.533-1.259c-0.32-0.341-0.789-0.533-1.259-0.533s-0.917 0.192-1.259 0.533l-4.395 4.395c-0.32 0.32-0.768 0.512-1.237 0.512s-0.917-0.192-1.237-0.512l-10.475-10.453h13.483c0.469 0 0.917-0.192 1.259-0.533 0.341-0.32 0.533-0.768 0.533-1.237 0-0.491-0.192-0.939-0.533-1.259-0.341-0.341-0.789-0.533-1.259-0.533h-14.208c-1.429 0-2.773 0.576-3.776 1.557-1.003 1.003-1.557 2.368-1.557 3.776v17.792c0 1.408 0.555 2.752 1.557 3.755s2.347 1.579 3.776 1.579h24.875c1.429 0 2.773-0.576 3.776-1.579s1.557-2.347 1.557-3.755v-10.667c0-0.491-0.192-0.939-0.512-1.259-0.341-0.341-0.789-0.533-1.259-0.533z"></path>
</symbol>
<symbol id="icon-twitter" viewBox="0 0 39 32">
<path fill="#fff" style="fill: var(--color1, #fff)" d="M39.309 3.833c-1.494 0.629-3.046 1.061-4.638 1.258 1.671-1.022 2.948-2.594 3.557-4.462-1.592 0.943-3.322 1.592-5.149 1.965-1.199-1.317-2.811-2.201-4.579-2.496-1.749-0.295-3.557 0-5.13 0.845s-2.83 2.182-3.557 3.813c-0.727 1.612-0.904 3.44-0.491 5.189-3.204-0.177-6.329-1.002-9.198-2.457-2.85-1.454-5.385-3.498-7.39-5.975-0.727 1.238-1.101 2.634-1.101 4.068 0 1.317 0.334 2.614 0.963 3.793 0.609 1.16 1.513 2.162 2.634 2.909-1.297-0.039-2.535-0.393-3.675-1.002v0.098c0.020 1.848 0.668 3.636 1.848 5.071s2.83 2.418 4.658 2.791c-0.708 0.197-1.435 0.314-2.162 0.334-0.511-0.020-1.022-0.059-1.533-0.138 0.531 1.592 1.533 2.988 2.889 3.99 1.336 1.002 2.968 1.553 4.658 1.592-2.85 2.221-6.348 3.44-9.945 3.459-0.668 0-1.317-0.039-1.965-0.118 3.675 2.378 7.96 3.636 12.363 3.636 3.007 0.020 6.014-0.55 8.825-1.69 2.791-1.14 5.346-2.83 7.488-4.973s3.833-4.678 4.992-7.469c1.14-2.811 1.73-5.798 1.71-8.825 0-0.334 0-0.688 0-1.042 1.533-1.16 2.87-2.575 3.931-4.167z"></path>
</symbol>
<symbol id="icon-villa" viewBox="0 0 32 32">
<path fill="#fff" style="fill: var(--color1, #fff)" d="M3.706 3.032v26.274h-0.506c-0.837 0-1.516 0.679-1.516 1.516s0.678 1.516 1.516 1.516h7.074c0.837 0 1.516-0.679 1.516-1.516v-5.053c0-0.837 0.678-1.516 1.516-1.516h5.053c0.837 0 1.516 0.679 1.516 1.516v5.053c0 0.837 0.679 1.516 1.516 1.516h7.073c0.837 0 1.516-0.679 1.516-1.516s-0.678-1.516-1.516-1.516h-0.505v-26.274h0.505c0.837 0 1.516-0.679 1.516-1.516s-0.678-1.516-1.516-1.516h-25.263c-0.837 0-1.516 0.679-1.516 1.516s0.678 1.516 1.516 1.516h0.506zM9.768 7.074c0-0.558 0.453-1.011 1.011-1.011h2.021c0.558 0 1.011 0.452 1.011 1.011v2.021c0 0.558-0.453 1.011-1.011 1.011h-2.021c-0.558 0-1.011-0.452-1.011-1.011v-2.021zM17.853 7.074c0-0.558 0.452-1.011 1.011-1.011h2.021c0.558 0 1.011 0.452 1.011 1.011v2.021c0 0.558-0.452 1.011-1.011 1.011h-2.021c-0.558 0-1.011-0.452-1.011-1.011v-2.021zM10.779 14.147c-0.558 0-1.011 0.452-1.011 1.011v2.021c0 0.558 0.453 1.011 1.011 1.011h2.021c0.558 0 1.011-0.452 1.011-1.011v-2.021c0-0.558-0.453-1.011-1.011-1.011h-2.021zM18.863 14.147c-0.558 0-1.011 0.452-1.011 1.011v2.021c0 0.558 0.452 1.011 1.011 1.011h2.021c0.558 0 1.011-0.452 1.011-1.011v-2.021c0-0.558-0.452-1.011-1.011-1.011h-2.021z"></path>
</symbol>
<symbol id="icon-bed" viewBox="0 0 32 32">
<path fill="#fff" style="fill: var(--color1, #fff)" d="M16.015 26.109c-4.364 0-8.727 0-13.091 0-0.436 0-0.64 0.204-0.64 0.64 0 0.116 0 0.233 0 0.335-0.015 0.145-0.029 0.276-0.044 0.407-0.102 0.48-0.567 0.873-1.12 0.858-0.553 0-1.004-0.407-1.091-0.945-0.015-0.116-0.029-0.247-0.029-0.378 0-2.56-0.015-5.12 0-7.68 0.015-1.498 0.567-2.793 1.629-3.869 0.64-0.655 1.411-1.135 2.284-1.425 0.684-0.233 1.396-0.305 2.124-0.305 6.705 0 13.411 0 20.116 0 1.964 0.015 3.564 0.785 4.742 2.342 0.582 0.756 0.916 1.629 1.033 2.575 0.044 0.32 0.058 0.64 0.058 0.975 0.015 2.487 0.015 4.975 0.015 7.462 0 0.378-0.102 0.742-0.422 0.989-0.349 0.276-0.727 0.349-1.149 0.175-0.378-0.16-0.64-0.451-0.684-0.873-0.029-0.204-0.029-0.422-0.029-0.64-0.015-0.349-0.16-0.553-0.451-0.625-0.073-0.015-0.131 0-0.204 0-4.349 0-8.698 0-13.047 0v-0.015z"></path>
<path fill="#fff" style="fill: var(--color1, #fff)" d="M15.855 3.636c2.822 0 5.658 0 8.48 0 0.945 0 1.833 0.204 2.604 0.771 0.975 0.742 1.542 1.716 1.6 2.953 0.044 1.033 0.015 2.080 0.029 3.113 0 0.669 0 1.338 0 2.007 0 0.058-0.015 0.131-0.029 0.189-0.044 0.175-0.145 0.247-0.335 0.218-0.204-0.044-0.393-0.131-0.611-0.145-0.48-0.058-0.96-0.087-1.44-0.116-0.32-0.015-0.422-0.073-0.465-0.393-0.16-0.989-1.091-1.876-2.269-1.862-1.338 0.015-2.662 0-3.985 0-0.989 0-1.833 0.582-2.167 1.498-0.058 0.131-0.073 0.276-0.102 0.407-0.044 0.247-0.131 0.335-0.378 0.349-0.524 0-1.062 0-1.571 0-0.247 0-0.349-0.102-0.393-0.378-0.058-0.378-0.204-0.727-0.451-1.018-0.451-0.553-1.033-0.844-1.745-0.858-1.367 0-2.735 0-4.116 0-1.149 0-2.051 0.887-2.196 1.862-0.044 0.32-0.145 0.378-0.465 0.393-0.538 0.044-1.062 0.087-1.6 0.145-0.16 0.015-0.32 0.087-0.48 0.116-0.175 0.029-0.262-0.029-0.305-0.204-0.029-0.073-0.029-0.145-0.029-0.204 0-1.615-0.029-3.215 0-4.829 0.029-1.673 0.815-2.909 2.356-3.665 0.611-0.291 1.28-0.349 1.949-0.349 2.705 0 5.411 0 8.116 0z"></path>
</symbol>
<symbol id="icon-arrow-up" viewBox="0 0 32 32">
<path fill="none" stroke="#fff" style="stroke: var(--color1, #fff)" stroke-linejoin="round" stroke-linecap="round" stroke-miterlimit="4" stroke-width="1.8824" d="M5.995 25.995l20-20M25.995 20.998v-15.002h-15.002"></path>
</symbol>
<symbol id="icon-arrow-up-grey" viewBox="0 0 32 32">
<path fill="#4d4d4d" stroke="#4d4d4d" style="stroke: var(--color1, #4d4d4d)" stroke-linejoin="round" stroke-linecap="round" stroke-miterlimit="4" stroke-width="2.7038" d="M5.995 25.995l20-20M25.995 20.998v-15.002h-15.002"></path>
</symbol>
<symbol id="icon-bath" viewBox="0 0 32 32">
<path fill="#fff" style="fill: var(--color1, #fff)" d="M3.013 21.013h13.12v2.4h8.213v-2.4h3.253c0.213 2.867 0.227 5.427-2.707 7.36-0.040 0.027-0.067 0.067-0.147 0.133 0.36 0.307 0.72 0.6 1.067 0.893-0.48 0.453-0.853 0.813-1.293 1.24-0.387-0.4-0.813-0.867-1.267-1.28-0.133-0.133-0.373-0.187-0.56-0.187-0.32-0.027-0.64 0.027-0.96 0.027-4.267 0-8.52 0-12.787 0-0.2 0-0.427 0.040-0.613-0.013-0.56-0.173-0.92 0.093-1.267 0.493-0.28 0.347-0.613 0.667-0.92 0.987-0.4-0.427-0.773-0.813-1.173-1.24 0.267-0.24 0.613-0.547 1.013-0.893-0.28-0.2-0.48-0.333-0.667-0.48-1.427-1.093-2.187-2.547-2.293-4.333-0.053-0.893-0.013-1.773-0.013-2.707v0z"></path>
<path fill="#fff" style="fill: var(--color1, #fff)" d="M3.027 14.373c0-0.16-0.013-0.293-0.013-0.44 0-2.32-0.013-4.64 0-6.96 0-2.547 1.773-4.333 4.32-4.307 0.853 0 1.733-0.013 2.547 0.173 1.467 0.347 2.387 1.36 2.827 2.787 0.080 0.267 0.2 0.4 0.493 0.493 1.72 0.453 2.92 2.067 2.947 3.853 0 0.28 0 0.573 0 0.88h-8.12c-0.387-2.040 0.72-4.16 3.053-4.813-0.213-0.907-1.107-1.68-2.053-1.72-0.72-0.027-1.427-0.027-2.147 0-1.227 0.053-2.213 1.187-2.227 2.533-0.013 2.333 0 4.667 0 7.013 0 0.147 0 0.307 0 0.507h-1.627z"></path>
<path fill="#fff" style="fill: var(--color1, #fff)" d="M16.12 19.373c-0.173 0-0.307 0-0.427 0-4.173 0-8.347 0-12.52 0-0.893 0-1.533-0.427-1.76-1.16-0.347-1.080 0.427-2.133 1.6-2.147 1.253-0.027 2.507-0.013 3.76-0.013 2.947 0 5.893 0 8.84 0 0.16 0 0.32 0 0.507 0v3.32z"></path>
<path fill="#fff" style="fill: var(--color1, #fff)" d="M22.693 21.827h-4.88c-0.013-0.16-0.027-0.293-0.027-0.44 0-1.693 0-3.387 0-5.067 0-1.227 0.667-1.907 1.893-1.907 0.453 0 0.907-0.013 1.347 0 1.027 0.040 1.68 0.72 1.693 1.733 0 1.76 0 3.533 0 5.293 0 0.12-0.013 0.227-0.027 0.387z"></path>
<path fill="#fff" style="fill: var(--color1, #fff)" d="M24.373 19.36v-3.307c0.787 0 1.573 0 2.36 0 0.4 0 0.813-0.027 1.213 0.040 0.867 0.147 1.44 0.853 1.4 1.68-0.027 0.827-0.64 1.52-1.493 1.56-1.147 0.067-2.293 0.027-3.48 0.027v0z"></path>
</symbol>
<symbol id="icon-arrow-left" viewBox="0 0 32 32">
<path fill="#fff" style="fill: var(--color1, #fff)" d="M27.2 16c0 0.661-0.544 1.195-1.205 1.195h-17.024l6.656 6.336c0.48 0.459 0.491 1.216 0.032 1.696s-1.216 0.491-1.696 0.032l-8.8-8.395c-0.235-0.235-0.363-0.544-0.363-0.864 0-0.331 0.128-0.64 0.363-0.875l8.8-8.395c0.48-0.459 1.237-0.448 1.696 0.032s0.448 1.237-0.032 1.696l-6.656 6.336h17.024c0.661 0 1.205 0.533 1.205 1.205z"></path>
</symbol>
<symbol id="icon-telegram" viewBox="0 0 32 32">
<path fill="#fff" style="fill: var(--color1, #fff)" d="M28.565 3.435c-0.672-0.683-1.653-0.939-2.571-0.672l-21.461 6.197c-0.971 0.277-1.653 1.045-1.835 2.016-0.192 1.003 0.469 2.261 1.333 2.795l6.709 4.096c0.683 0.416 1.568 0.309 2.144-0.256l7.68-7.68c0.384-0.405 1.024-0.405 1.408 0 0.395 0.384 0.395 1.013 0 1.408l-7.691 7.68c-0.565 0.576-0.672 1.461-0.256 2.144l4.096 6.741c0.48 0.789 1.312 1.248 2.219 1.248 0.107 0 0.224 0 0.331-0.011 1.035-0.139 1.867-0.843 2.176-1.845l6.357-21.291c0.277-0.907 0.021-1.888-0.64-2.571z"></path>
<path fill="#fff" style="fill: var(--color1, #fff)" opacity="0.4" d="M12.597 25.515c0.384 0.395 0.384 1.024 0 1.419l-1.824 1.824c-0.192 0.192-0.448 0.288-0.704 0.288s-0.512-0.096-0.704-0.288c-0.395-0.395-0.395-1.024 0-1.419l1.813-1.824c0.395-0.384 1.024-0.384 1.419 0zM11.552 20.469c0.384 0.384 0.384 1.024 0 1.408l-1.824 1.824c-0.192 0.192-0.448 0.299-0.704 0.299s-0.512-0.107-0.704-0.299c-0.395-0.395-0.395-1.024 0-1.408l1.813-1.824c0.395-0.395 1.024-0.395 1.419 0zM6.539 18.88c0.384 0.384 0.384 1.024 0 1.408l-1.824 1.824c-0.192 0.192-0.448 0.299-0.704 0.299s-0.512-0.107-0.704-0.299c-0.395-0.395-0.395-1.024 0-1.419l1.813-1.813c0.395-0.395 1.024-0.395 1.419 0z"></path>
</symbol>
<symbol id="icon-facebook" viewBox="0 0 32 32">
<path fill="#fff" style="fill: var(--color1, #fff)" d="M20.987 5.307h3.013v-5.093c-1.467-0.147-2.92-0.227-4.387-0.213-4.36 0-7.333 2.653-7.333 7.52v4.187h-4.907v5.693h4.907v14.6h5.893v-14.6h4.893l0.733-5.693h-5.627v-3.627c0-1.68 0.44-2.773 2.813-2.773z"></path>
</symbol>
<symbol id="icon-linkedin" viewBox="0 0 32 32">
<path fill="#fff" style="fill: var(--color1, #fff)" d="M27.293 2.667h-22.587c-0.267-0.013-0.507 0.040-0.747 0.133s-0.453 0.227-0.64 0.413c-0.173 0.173-0.32 0.387-0.427 0.613-0.093 0.24-0.147 0.48-0.147 0.747v22.853c0 0.253 0.053 0.493 0.147 0.733 0.107 0.227 0.253 0.44 0.427 0.613 0.187 0.187 0.4 0.32 0.64 0.413s0.48 0.147 0.747 0.147h22.587c0.253 0 0.493-0.053 0.733-0.147s0.453-0.227 0.64-0.413c0.173-0.173 0.32-0.387 0.427-0.613 0.093-0.24 0.147-0.48 0.147-0.733v-22.853c0-0.267-0.053-0.507-0.147-0.747-0.107-0.227-0.253-0.44-0.427-0.613-0.187-0.187-0.4-0.32-0.64-0.413s-0.48-0.147-0.733-0.133zM10.773 24.987h-4v-12h4v12zM8.773 11.307c-0.547 0-1.080-0.227-1.467-0.613s-0.6-0.92-0.6-1.467c0-0.56 0.213-1.093 0.6-1.48s0.92-0.6 1.467-0.6c0.293-0.040 0.6-0.013 0.88 0.080s0.533 0.24 0.76 0.427c0.213 0.2 0.387 0.44 0.507 0.707 0.133 0.28 0.187 0.56 0.187 0.867 0 0.293-0.053 0.573-0.187 0.853-0.12 0.267-0.293 0.507-0.507 0.707-0.227 0.187-0.48 0.333-0.76 0.427s-0.587 0.12-0.88 0.093zM25.213 24.987h-4v-6.44c0-1.613-0.573-2.667-2.027-2.667-0.453 0-0.893 0.133-1.267 0.4-0.36 0.253-0.64 0.627-0.787 1.053-0.107 0.307-0.16 0.64-0.133 0.973v6.667h-4c0 0 0-10.907 0-12h4v1.693c0.36-0.64 0.88-1.16 1.52-1.507 0.64-0.36 1.36-0.533 2.093-0.493 2.653 0 4.6 1.72 4.6 5.413v6.907z"></path>
</symbol>
<symbol id="icon-youtube" viewBox="0 0 32 32">
<path fill="#fff" style="fill: var(--color1, #fff)" d="M30.667 12.933c0.053-1.907-0.36-3.8-1.227-5.493-0.573-0.707-1.387-1.173-2.28-1.333-3.72-0.347-7.44-0.48-11.16-0.413-3.72-0.067-7.427 0.067-11.12 0.4-0.733 0.12-1.413 0.467-1.947 0.987-1.213 1.093-1.333 3-1.467 4.6-0.2 2.867-0.2 5.76 0 8.64 0.027 0.893 0.16 1.787 0.387 2.667 0.173 0.667 0.493 1.293 0.947 1.813 0.547 0.533 1.24 0.893 2 1.027 2.867 0.36 5.76 0.507 8.667 0.44 4.667 0.080 8.747 0 13.587-0.373 0.773-0.12 1.493-0.493 2.053-1.040 0.36-0.373 0.64-0.827 0.8-1.333 0.48-1.453 0.72-2.987 0.707-4.52 0.053-0.76 0.053-5.253 0.053-6.067zM12.987 19.8v-8.267l7.893 4.16c-2.213 1.213-5.133 2.613-7.893 4.107z"></path>
</symbol>
<symbol id="icon-close" viewBox="0 0 32 32">
<path fill="none" stroke="#fff" style="stroke: var(--color1, #fff)" stroke-linejoin="round" stroke-linecap="round" stroke-miterlimit="4" stroke-width="1.7778" d="M8 24l16-16M8 8l16 16"></path>
</symbol>
<symbol id="icon-arrow-right" viewBox="0 0 32 32">
<path fill="#fff" style="fill: var(--color1, #fff)" d="M4.8 16c0-0.672 0.533-1.205 1.195-1.205h17.024l-6.656-6.336c-0.48-0.459-0.491-1.216-0.032-1.696s1.216-0.491 1.696-0.032l8.8 8.395c0.235 0.235 0.373 0.544 0.373 0.875 0 0.32-0.139 0.629-0.373 0.864l-8.8 8.395c-0.48 0.459-1.237 0.448-1.696-0.032s-0.448-1.237 0.032-1.696l6.656-6.336h-17.024c-0.661 0-1.195-0.533-1.195-1.195z"></path>
</symbol>
</defs>
</svg>
