<svg aria-hidden="true" style="position: absolute; width: 0; height: 0; overflow: hidden;" version="1.1" xmlns="http://www.w3.org/2000/svg" xmlns:xlink="http://www.w3.org/1999/xlink">
<defs>
<symbol id="icon-gmail" viewBox="0 0 36 32">
<path fill="#999" style="fill: var(--color1, #999)" d="M26.667 7.104h1.771v1.771c0 0.469 0.192 0.917 0.512 1.259 0.341 0.341 0.789 0.533 1.259 0.533s0.917-0.192 1.259-0.533c0.341-0.341 0.533-0.789 0.533-1.259v-1.771h1.771c0.469 0 0.917-0.192 1.259-0.533 0.32-0.32 0.512-0.768 0.512-1.237 0-0.491-0.192-0.939-0.512-1.259-0.341-0.341-0.789-0.533-1.259-0.533h-1.771v-1.771c0-0.469-0.192-0.917-0.533-1.259s-0.789-0.512-1.259-0.512c-0.469 0-0.917 0.171-1.259 0.512-0.32 0.341-0.512 0.789-0.512 1.259v1.771h-1.771c-0.491 0-0.939 0.192-1.259 0.533-0.341 0.32-0.533 0.768-0.533 1.259 0 0.469 0.192 0.917 0.533 1.237 0.32 0.341 0.768 0.533 1.259 0.533zM33.771 14.208c-0.469 0-0.917 0.192-1.259 0.533-0.341 0.32-0.512 0.768-0.512 1.259v10.667c0 0.469-0.192 0.917-0.533 1.237-0.341 0.341-0.789 0.533-1.259 0.533h-24.875c-0.491 0-0.939-0.192-1.259-0.533-0.341-0.32-0.533-0.768-0.533-1.237v-17.067l10.453 10.475c1.003 1.003 2.368 1.557 3.776 1.557s2.773-0.555 3.755-1.557l4.395-4.395c0.341-0.32 0.533-0.789 0.533-1.259s-0.192-0.917-0.533-1.259c-0.32-0.341-0.789-0.533-1.259-0.533s-0.917 0.192-1.259 0.533l-4.395 4.395c-0.32 0.32-0.768 0.512-1.237 0.512s-0.917-0.192-1.237-0.512l-10.475-10.453h13.483c0.469 0 0.917-0.192 1.259-0.533 0.341-0.32 0.533-0.768 0.533-1.237 0-0.491-0.192-0.939-0.533-1.259-0.341-0.341-0.789-0.533-1.259-0.533h-14.208c-1.429 0-2.773 0.576-3.776 1.557-1.003 1.003-1.557 2.368-1.557 3.776v17.792c0 1.408 0.555 2.752 1.557 3.755s2.347 1.579 3.776 1.579h24.875c1.429 0 2.773-0.576 3.776-1.579s1.557-2.347 1.557-3.755v-10.667c0-0.491-0.192-0.939-0.512-1.259-0.341-0.341-0.789-0.533-1.259-0.533z"></path>
</symbol>
</defs>
</svg>
